<svg width="24" height="24" viewBox="0 0 24 24" fill="none" xmlns="http://www.w3.org/2000/svg">
<path fill-rule="evenodd" clip-rule="evenodd" d="M3.46875 1.5C2.38144 1.5 1.5 2.38144 1.5 3.46875V20.5312C1.5 21.6186 2.38144 22.5 3.46875 22.5H20.5312C21.6186 22.5 22.5 21.6186 22.5 20.5312V3.46875C22.5 2.38144 21.6186 1.5 20.5312 1.5H3.46875ZM9.375 8.0625C10.0999 8.0625 10.6875 7.47487 10.6875 6.75C10.6875 6.02512 10.0999 5.4375 9.375 5.4375C8.65013 5.4375 8.0625 6.02512 8.0625 6.75C8.0625 7.47487 8.65013 8.0625 9.375 8.0625ZM13.9867 8.06275C14.1996 8.06866 14.3964 8.17752 14.5145 8.35473L19.7645 16.2297C19.8988 16.4311 19.9113 16.69 19.7971 16.9034C19.6829 17.1168 19.4605 17.25 19.2185 17.25H4.78097C4.55352 17.25 4.3423 17.1322 4.22273 16.9388C4.10315 16.7453 4.09228 16.5037 4.194 16.3003L6.819 11.0503C6.91334 10.8616 7.09262 10.7298 7.30085 10.696C7.50907 10.6622 7.72084 10.7305 7.87 10.8797L9.95996 12.9697L13.4435 8.325C13.5713 8.15462 13.7738 8.05684 13.9867 8.06275Z" fill="#3B4043"/>
</svg>
