<svg width="24" height="24" viewBox="0 0 24 24" fill="none" xmlns="http://www.w3.org/2000/svg">
<path fill-rule="evenodd" clip-rule="evenodd" d="M18.5342 1.38477C17.7504 1.04493 16.8889 0.925654 16.0425 1.03958C14.5427 1.1744 13.1494 1.87263 12.1436 2.99406C11.1361 4.11736 10.5928 5.58116 10.6233 7.08938C10.6193 7.48946 10.6664 7.88753 10.7628 8.27406L9.97272 8.97022L7.8793 6.8768L8.33336 5.5146C8.44117 5.1912 8.357 4.83465 8.11595 4.5936L5.59595 2.0736C5.24447 1.72213 4.67463 1.72213 4.32315 2.0736L1.80315 4.5936C1.63437 4.76238 1.53955 4.9913 1.53955 5.23C1.53955 5.46869 1.63437 5.69761 1.80315 5.86639L4.32315 8.38639C4.5642 8.62744 4.92075 8.71161 5.24416 8.60381L6.60658 8.14967L8.61946 10.1625L2.33524 15.6994L2.33125 15.703C1.93371 16.0574 1.61142 16.4881 1.38351 16.9695C1.15559 17.4509 1.02669 17.9732 1.00445 18.5053C0.982205 19.0375 1.06708 19.5687 1.25403 20.0674C1.44099 20.5661 1.72621 21.0222 2.09279 21.4086L2.74572 20.7892L2.09519 21.4111C2.47363 21.807 2.93199 22.1177 3.43982 22.3227C3.94764 22.5277 4.49328 22.6222 5.04046 22.6C5.58764 22.5778 6.12382 22.4394 6.61336 22.1939C7.09644 21.9517 7.52318 21.6107 7.86599 21.1932L15.3459 12.7841C16.1368 12.9458 16.9515 12.9688 17.7531 12.8506C17.7701 12.8481 17.7871 12.8451 17.8039 12.8416C18.8762 12.6201 19.8677 12.1102 20.6716 11.3669C21.474 10.625 22.0592 9.67863 22.3644 8.62942C22.7148 7.4772 22.6756 6.24149 22.2526 5.11374C22.2526 5.11374 22.0953 4.45279 21.6932 4.33205C21.291 4.21132 20.7749 4.79206 20.7749 4.79206L18.6394 6.91853L16.6802 4.96966L18.8112 2.84834C19.0226 2.63787 19.116 2.33631 19.0605 2.04318C19.0051 1.75005 18.8079 1.50345 18.5342 1.38477ZM4.11357 20.6535C3.84322 20.5444 3.59915 20.3791 3.39751 20.1686C3.19739 19.9573 3.04165 19.7081 2.9395 19.4356C2.83716 19.1626 2.7907 18.8718 2.80288 18.5805C2.81505 18.2892 2.88561 18.0033 3.01038 17.7398C3.13479 17.477 3.31056 17.2418 3.52732 17.0481L3.52918 17.0464L12.3947 9.23528C12.6812 8.98285 12.7772 8.5771 12.6343 8.22303C12.4899 7.86542 12.4182 7.48262 12.4233 7.09699C12.4235 7.08609 12.4234 7.07518 12.4232 7.06429C12.399 6.0081 12.7782 4.98238 13.4836 4.1959C14.189 3.40943 15.1675 2.92131 16.2201 2.8309C16.2361 2.82953 16.252 2.82774 16.2678 2.82552L16.2851 2.82316L14.7693 4.33205C14.5996 4.50099 14.5042 4.7306 14.5042 4.97007C14.5043 5.20953 14.5997 5.4391 14.7695 5.60798L18.005 8.82638C18.3562 9.17574 18.9237 9.17559 19.2748 8.82604L20.7906 7.31662C20.7701 7.58414 20.7203 7.85018 20.641 8.10987L20.6373 8.12233C20.4237 8.85941 20.0131 9.52424 19.4496 10.0452C18.8924 10.5604 18.2067 10.9156 17.4648 11.0736C16.7363 11.1772 15.9939 11.1237 15.2876 10.9166C14.9537 10.8186 14.5932 10.922 14.3618 11.182L6.50845 20.011C6.49944 20.0212 6.49067 20.0315 6.48213 20.042C6.29801 20.2688 6.06772 20.4539 5.80657 20.5848C5.54541 20.7158 5.25937 20.7896 4.96746 20.8015C4.67556 20.8133 4.38447 20.7629 4.11357 20.6535ZM3.71234 5.23L5.20263 6.72029L6.13804 6.40849L6.44984 5.47308L4.95955 3.98279L3.71234 5.23Z" fill="#3B4043"/>
<path d="M19.6361 13.8636C19.2846 13.5121 18.7148 13.5121 18.3633 13.8636C18.0118 14.2151 18.0118 14.7849 18.3633 15.1364L20.1183 16.8914L20.1248 16.8979C20.3387 17.1073 20.5085 17.3574 20.6245 17.6334C20.7404 17.9093 20.8002 18.2057 20.8002 18.505C20.8002 18.8043 20.7404 19.1007 20.6245 19.3766C20.5085 19.6526 20.3387 19.9026 20.1248 20.1121L20.7547 20.755L20.1119 20.1251C19.9024 20.3389 19.6523 20.5088 19.3763 20.6248C19.1004 20.7407 18.804 20.8005 18.5047 20.8005C18.2054 20.8005 17.909 20.7407 17.6331 20.6248C17.3571 20.5088 17.1071 20.3389 16.8976 20.1251L14.2361 17.4636C13.8846 17.1121 13.3148 17.1121 12.9633 17.4636C12.6118 17.8151 12.6118 18.3849 12.9633 18.7364L15.6153 21.3883C15.9916 21.7716 16.4405 22.0761 16.9358 22.2842C17.4325 22.4929 17.9659 22.6005 18.5047 22.6005C19.0435 22.6005 19.5769 22.4929 20.0736 22.2842C20.5676 22.0767 21.0154 21.7732 21.3911 21.3914C21.7729 21.0156 22.0764 20.5678 22.2839 20.0739C22.4927 19.5772 22.6002 19.0438 22.6002 18.505C22.6002 17.9662 22.4927 17.4328 22.2839 16.9361C22.0758 16.4408 21.7713 15.992 21.3881 15.6156L19.6361 13.8636Z" fill="#3B4043"/>
</svg>
