<svg width="24" height="24" viewBox="0 0 24 24" fill="none" xmlns="http://www.w3.org/2000/svg">
<path fill-rule="evenodd" clip-rule="evenodd" d="M18.7363 2.16361C18.3848 1.81213 17.815 1.81213 17.4635 2.16361L7.56353 12.0636C7.44818 12.1789 7.36635 12.3235 7.32679 12.4817L6.42679 16.0817C6.35012 16.3884 6.43998 16.7129 6.66353 16.9364C6.88707 17.1599 7.21151 17.2498 7.5182 17.1731L11.1182 16.2731C11.2765 16.2336 11.421 16.1517 11.5363 16.0364L21.4363 6.1364C21.7878 5.78493 21.7878 5.21508 21.4363 4.86361L18.7363 2.16361ZM8.53685 15.0631L9.01259 13.1601L18.0999 4.07279L19.5271 5.5L10.4398 14.5873L8.53685 15.0631Z" fill="#3B4043"/>
<path d="M2.7999 4.6C2.30285 4.6 1.8999 5.00294 1.8999 5.5V20.8C1.8999 21.2971 2.30285 21.7 2.7999 21.7H18.0999C18.597 21.7 18.9999 21.2971 18.9999 20.8V14.5C18.9999 14.0029 18.597 13.6 18.0999 13.6C17.6028 13.6 17.1999 14.0029 17.1999 14.5V19.9H3.6999V6.4H9.0999C9.59696 6.4 9.9999 5.99706 9.9999 5.5C9.9999 5.00294 9.59696 4.6 9.0999 4.6H2.7999Z" fill="#3B4043"/>
</svg>
