<svg width="24" height="24" viewBox="0 0 24 24" fill="none" xmlns="http://www.w3.org/2000/svg">
<path fill-rule="evenodd" clip-rule="evenodd" d="M2 12C2 6.47715 6.47715 2 12 2C17.5228 2 22 6.47715 22 12C22 17.5228 17.5228 22 12 22C6.47715 22 2 17.5228 2 12ZM10.5473 8.22889C11.2511 7.9179 12.055 7.78533 12.735 7.84917C13.4354 7.91491 13.8448 8.16558 14.0158 8.44223C14.4293 9.1114 14.2663 10.0442 13.1618 10.98C11.9268 12.0265 11.1663 12.8274 11.1663 14.0833C11.1663 14.5436 11.5394 14.9167 11.9997 14.9167C12.4599 14.9167 12.833 14.5436 12.833 14.0833C12.833 13.6726 12.9742 13.3235 14.2392 12.2516C15.6347 11.0691 16.4784 9.25693 15.4336 7.56611C14.8754 6.66275 13.8527 6.28009 12.8908 6.18979C11.9085 6.09758 10.8199 6.28627 9.87366 6.70444C9.45269 6.89048 9.26224 7.38254 9.44827 7.80351C9.63431 8.22447 10.1264 8.41492 10.5473 8.22889ZM12.8332 17C12.8332 17.4602 12.4601 17.8333 11.9998 17.8333C11.5396 17.8333 11.1665 17.4602 11.1665 17C11.1665 16.5398 11.5396 16.1667 11.9998 16.1667C12.4601 16.1667 12.8332 16.5398 12.8332 17Z" fill="#444444"/>
</svg>
