<svg width="32" height="32" viewBox="0 0 32 32" fill="none" xmlns="http://www.w3.org/2000/svg">
  <path fill-rule="evenodd" clip-rule="evenodd" d="M15.154 3.83659C15.5268 3.5211 16.073 3.5211 16.4458 3.83659L26.8458 12.6366C27.0704 12.8266 27.1999 13.1058 27.1999 13.4V27C27.1999 27.5523 26.7522 28 26.1999 28H18.9999C18.4476 28 17.9999 27.5523 17.9999 27V20H13.5999V27C13.5999 27.5523 13.1522 28 12.5999 28H5.3999C4.84762 28 4.3999 27.5523 4.3999 27V13.4C4.3999 13.1058 4.52941 12.8266 4.75396 12.6366L15.154 3.83659ZM6.3999 13.8638V26H11.5999V19C11.5999 18.4477 12.0476 18 12.5999 18H18.9999C19.5522 18 19.9999 18.4477 19.9999 19V26H25.1999V13.8638L15.7999 5.90993L6.3999 13.8638Z" fill="#3B4043"/>
</svg>
