<svg width="32" height="32" viewBox="0 0 32 32" fill="none" xmlns="http://www.w3.org/2000/svg">
  <path d="M9 19V16H12V19H9Z" fill="#3B4043"/>
  <path fill-rule="evenodd" clip-rule="evenodd" d="M2.7998 5.40002C2.7998 4.84774 3.24752 4.40002 3.7998 4.40002H27.7998C28.3521 4.40002 28.7998 4.84774 28.7998 5.40002V26.2C28.7998 26.7523 28.3521 27.2 27.7998 27.2H3.7998C3.24752 27.2 2.7998 26.7523 2.7998 26.2V5.40002ZM26.7998 6.40002V8.40002H9.59961V6.40002H26.7998ZM7.59961 6.40002V8.40002H4.7998V6.40002H7.59961ZM8 14C7.44772 14 7 14.4477 7 15V20C7 20.5523 7.44772 21 8 21H13C13.5523 21 14 20.5523 14 20V15C14 14.4477 13.5523 14 13 14H8ZM16 15C16 14.4477 16.4477 14 17 14H23C23.5523 14 24 14.4477 24 15C24 15.5523 23.5523 16 23 16H17C16.4477 16 16 15.5523 16 15ZM17 18C16.4477 18 16 18.4477 16 19C16 19.5523 16.4477 20 17 20H20C20.5523 20 21 19.5523 21 19C21 18.4477 20.5523 18 20 18H17Z" fill="#3B4043"/>
</svg>
