<svg width="32" height="32" viewBox="0 0 32 32" fill="none" xmlns="http://www.w3.org/2000/svg">
  <path fill-rule="evenodd" clip-rule="evenodd" d="M8 14C7.44772 14 7 14.4477 7 15V20C7 20.5523 7.44772 21 8 21H13C13.5523 21 14 20.5523 14 20V15C14 14.4477 13.5523 14 13 14H8ZM9 19V16H12V19H9Z" fill="#3B4043"/>
  <path d="M17 14C16.4477 14 16 14.4477 16 15C16 15.5523 16.4477 16 17 16H23C23.5523 16 24 15.5523 24 15C24 14.4477 23.5523 14 23 14H17Z" fill="#3B4043"/>
  <path d="M16 19C16 18.4477 16.4477 18 17 18H20C20.5523 18 21 18.4477 21 19C21 19.5523 20.5523 20 20 20H17C16.4477 20 16 19.5523 16 19Z" fill="#3B4043"/>
  <path fill-rule="evenodd" clip-rule="evenodd" d="M3.7998 4.40002C3.24752 4.40002 2.7998 4.84774 2.7998 5.40002V26.2C2.7998 26.7523 3.24752 27.2 3.7998 27.2H27.7998C28.3521 27.2 28.7998 26.7523 28.7998 26.2V5.40002C28.7998 4.84774 28.3521 4.40002 27.7998 4.40002H3.7998ZM7.59961 6.40002H4.7998V8.40002H7.59961V6.40002ZM9.59961 8.40002V6.40002H26.7998V8.40002H9.59961ZM4.7998 10.4V25.2H26.7998V10.4H4.7998Z" fill="#3B4043"/>
</svg>
