<svg width="24" height="24" viewBox="0 0 24 24" fill="none" xmlns="http://www.w3.org/2000/svg">
<path fill-rule="evenodd" clip-rule="evenodd" d="M12.1001 3.66667C7.49772 3.66667 3.76676 7.39763 3.76676 12C3.76676 16.6024 7.49772 20.3333 12.1001 20.3333C16.7025 20.3333 20.4334 16.6024 20.4334 12C20.4334 7.39763 16.7025 3.66667 12.1001 3.66667ZM2.1001 12C2.1001 6.47715 6.57725 2 12.1001 2C17.6229 2 22.1001 6.47715 22.1001 12C22.1001 17.5228 17.6229 22 12.1001 22C6.57725 22 2.1001 17.5228 2.1001 12ZM12.6667 7.83333C12.6667 8.29357 12.2936 8.66667 11.8333 8.66667C11.3731 8.66667 11 8.29357 11 7.83333C11 7.3731 11.3731 7 11.8333 7C12.2936 7 12.6667 7.3731 12.6667 7.83333ZM12.6667 11.1667C12.6667 10.7064 12.2936 10.3333 11.8333 10.3333C11.3731 10.3333 11 10.7064 11 11.1667V16.1667C11 16.6269 11.3731 17 11.8333 17C12.2936 17 12.6667 16.6269 12.6667 16.1667V11.1667Z" fill="#444444"/>
</svg>
