<svg width="24" height="24" viewBox="0 0 24 24" fill="none" xmlns="http://www.w3.org/2000/svg">
<path d="M13.8498 4.72297L11.5364 7.03639C11.1849 7.38787 10.6151 7.38787 10.2636 7.03639C9.91213 6.68492 9.91213 6.11507 10.2636 5.7636L12.5888 3.43837C13.5994 2.45212 14.9555 1.90009 16.3675 1.90009C17.7795 1.90009 19.1356 2.45216 20.1461 3.43842L19.5175 4.0825L20.1616 3.45388C21.1478 4.4644 21.6999 5.82047 21.6999 7.2325C21.6999 8.64453 21.1478 10.0006 20.1616 11.0111L20.1539 11.0189L17.8364 13.3364C17.4849 13.6879 16.9151 13.6879 16.5636 13.3364C16.2121 12.9849 16.2121 12.4151 16.5636 12.0636L18.877 9.75018C19.5329 9.07628 19.8999 8.17299 19.8999 7.2325C19.8999 6.29393 19.5344 5.39241 18.881 4.71895C18.2076 4.06563 17.3061 3.70009 16.3675 3.70009C15.427 3.70009 14.5237 4.06713 13.8498 4.72297Z" fill="#444444"/>
<path d="M7.03621 10.2636C7.38768 10.6151 7.38768 11.1849 7.03621 11.5364L4.72279 13.8498C4.06694 14.5237 3.6999 15.427 3.6999 16.3675C3.6999 17.3061 4.06544 18.2076 4.71877 18.881C5.39222 19.5344 6.29374 19.8999 7.23231 19.8999C8.1728 19.8999 9.07609 19.5329 9.74999 18.877L12.0634 16.5636C12.4149 16.2121 12.9847 16.2121 13.3362 16.5636C13.6877 16.9151 13.6877 17.4849 13.3362 17.8364L11.011 20.1616C10.0005 21.1479 8.64434 21.6999 7.23231 21.6999C5.82028 21.6999 4.46421 21.1478 3.45369 20.1616L4.08231 19.5175L3.43823 20.1461C2.45198 19.1356 1.8999 17.7795 1.8999 16.3675C1.8999 14.9555 2.45198 13.5994 3.43823 12.5889L3.44587 12.5811L5.76342 10.2636C6.11489 9.91213 6.68474 9.91213 7.03621 10.2636Z" fill="#444444"/>
<path d="M16.0362 8.83639C16.3877 8.48492 16.3877 7.91507 16.0362 7.5636C15.6847 7.21213 15.1149 7.21213 14.7634 7.5636L7.56341 14.7636C7.21194 15.1151 7.21194 15.6849 7.56341 16.0364C7.91488 16.3879 8.48473 16.3879 8.8362 16.0364L16.0362 8.83639Z" fill="#444444"/>
</svg>
