<svg width="32" height="32" viewBox="0 0 32 32" fill="none" xmlns="http://www.w3.org/2000/svg">
  <path fill-rule="evenodd" clip-rule="evenodd" d="M4.7998 15.8C4.7998 9.72485 9.72467 4.79999 15.7998 4.79999C21.8749 4.79999 26.7998 9.72485 26.7998 15.8C26.7998 21.8751 21.8749 26.8 15.7998 26.8C9.72467 26.8 4.7998 21.8751 4.7998 15.8ZM15.7998 2.79999C8.6201 2.79999 2.7998 8.62029 2.7998 15.8C2.7998 22.9797 8.6201 28.8 15.7998 28.8C22.9795 28.8 28.7998 22.9797 28.7998 15.8C28.7998 8.62029 22.9795 2.79999 15.7998 2.79999ZM11.2186 9.38623C11.6681 9.06523 12.2926 9.16932 12.6136 9.61873L15.7999 14.0795L18.9861 9.61873C19.3072 9.16932 19.9317 9.06523 20.3811 9.38623C20.8305 9.70724 20.9346 10.3318 20.6136 10.7812L17.7431 14.8H19.7998C20.3521 14.8 20.7998 15.2477 20.7998 15.8C20.7998 16.3523 20.3521 16.8 19.7998 16.8H16.7998V18H19.7998C20.3521 18 20.7998 18.4477 20.7998 19C20.7998 19.5523 20.3521 20 19.7998 20H16.7998V22C16.7998 22.5523 16.3521 23 15.7998 23C15.2475 23 14.7998 22.5523 14.7998 22V20H11.7998C11.2475 20 10.7998 19.5523 10.7998 19C10.7998 18.4477 11.2475 18 11.7998 18H14.7998V16.8H11.7998C11.2475 16.8 10.7998 16.3523 10.7998 15.8C10.7998 15.2477 11.2475 14.8 11.7998 14.8H13.8567L10.9861 10.7812C10.6651 10.3318 10.7692 9.70724 11.2186 9.38623Z" fill="#3B4043"/>
</svg>
