<svg width="32" height="32" viewBox="0 0 32 32" fill="none" xmlns="http://www.w3.org/2000/svg">
  <path fill-rule="evenodd" clip-rule="evenodd" d="M15.7998 2.79999C8.6201 2.79999 2.7998 8.62029 2.7998 15.8C2.7998 22.9797 8.6201 28.8 15.7998 28.8C22.9795 28.8 28.7998 22.9797 28.7998 15.8C28.7998 8.62029 22.9795 2.79999 15.7998 2.79999ZM12.6136 9.61873C12.2926 9.16932 11.6681 9.06523 11.2186 9.38623C10.7692 9.70724 10.6651 10.3318 10.9861 10.7812L13.8567 14.8H11.7998C11.2475 14.8 10.7998 15.2477 10.7998 15.8C10.7998 16.3523 11.2475 16.8 11.7998 16.8H14.7998V18H11.7998C11.2475 18 10.7998 18.4477 10.7998 19C10.7998 19.5523 11.2475 20 11.7998 20H14.7998V22C14.7998 22.5523 15.2475 23 15.7998 23C16.3521 23 16.7998 22.5523 16.7998 22V20H19.7998C20.3521 20 20.7998 19.5523 20.7998 19C20.7998 18.4477 20.3521 18 19.7998 18H16.7998V16.8H19.7998C20.3521 16.8 20.7998 16.3523 20.7998 15.8C20.7998 15.2477 20.3521 14.8 19.7998 14.8H17.7431L20.6136 10.7812C20.9346 10.3318 20.8305 9.70724 20.3811 9.38623C19.9317 9.06523 19.3072 9.16932 18.9861 9.61873L15.7999 14.0795L12.6136 9.61873Z" fill="#3B4043"/>
</svg>
