<svg width="48" height="48" viewBox="0 0 48 48" fill="none" xmlns="http://www.w3.org/2000/svg">
  <path fill-rule="evenodd" clip-rule="evenodd" d="M42.9347 4.39169C42.9893 4.45204 43.0395 4.51568 43.085 4.58211C43.2929 4.8847 43.3963 5.23197 43.4002 5.57808C43.4017 5.69914 43.3909 5.82131 43.3673 5.94287C43.3663 5.94823 43.3652 5.95359 43.3642 5.95894L36.1654 41.9529C36.0441 42.5591 35.6203 43.0607 35.0428 43.2813C34.4652 43.502 33.8149 43.4108 33.3203 43.0399L21.5967 34.2471L15.9805 40.9554C15.4945 41.5359 14.6972 41.7502 13.9856 41.4917C13.274 41.2331 12.8003 40.5569 12.8003 39.7999V27.6498L4.52033 21.4399C3.99989 21.0495 3.73057 20.4088 3.81587 19.7639C3.90116 19.1189 4.32781 18.5702 4.93182 18.3286L40.8936 3.94388C41.1576 3.83107 41.4409 3.78526 41.7194 3.8038C42.1716 3.83391 42.6111 4.0337 42.9347 4.39169ZM16.4003 30.3498V34.8459L18.7125 32.084L16.4003 30.3498ZM17.8294 26.9217L38.8662 10.0923L33.1954 38.4462L17.8294 26.9217ZM30.9908 11.7823L14.8551 24.6909L9.24264 20.4816L30.9908 11.7823Z" fill="#3B4043"/>
</svg>
