<svg width="32" height="32" viewBox="0 0 32 32" fill="none" xmlns="http://www.w3.org/2000/svg">
  <path d="M4.9332 18.1333C6.25869 18.1333 7.3332 17.0588 7.3332 15.7333C7.3332 14.4079 6.25869 13.3333 4.9332 13.3333C3.60772 13.3333 2.5332 14.4079 2.5332 15.7333C2.5332 17.0588 3.60772 18.1333 4.9332 18.1333Z" fill="#444444"/>
  <path d="M15.7333 18.1333C17.0588 18.1333 18.1333 17.0588 18.1333 15.7333C18.1333 14.4079 17.0588 13.3333 15.7333 13.3333C14.4079 13.3333 13.3333 14.4079 13.3333 15.7333C13.3333 17.0588 14.4079 18.1333 15.7333 18.1333Z" fill="#444444"/>
  <path d="M28.9335 15.7333C28.9335 17.0588 27.8589 18.1333 26.5335 18.1333C25.208 18.1333 24.1335 17.0588 24.1335 15.7333C24.1335 14.4079 25.208 13.3333 26.5335 13.3333C27.8589 13.3333 28.9335 14.4079 28.9335 15.7333Z" fill="#444444"/>
</svg>
