<svg width="32" height="32" viewBox="0 0 32 32" fill="none" xmlns="http://www.w3.org/2000/svg">
  <path fill-rule="evenodd" clip-rule="evenodd" d="M15.7998 2.79999C8.6201 2.79999 2.7998 8.62029 2.7998 15.8C2.7998 22.9797 8.6201 28.8 15.7998 28.8C22.9795 28.8 28.7998 22.9797 28.7998 15.8C28.7998 8.62029 22.9795 2.79999 15.7998 2.79999ZM11.7998 16.6C11.7998 18.8088 13.591 20.6 15.7998 20.6C18.0086 20.6 19.7998 18.8088 19.7998 16.6V14.2C19.7998 11.9912 18.0086 10.2 15.7998 10.2C13.591 10.2 11.7998 11.9912 11.7998 14.2V16.6ZM22.3602 24.6303C21.0393 23.4933 19.3167 22.8 17.4355 22.8H14.1627C12.2825 22.8 10.5594 23.4931 9.23883 24.6301C11.0705 25.9933 13.3408 26.8 15.7996 26.8C18.2583 26.8 20.5285 25.9933 22.3602 24.6303Z" fill="#3B4043"/>
</svg>
