<svg width="32" height="32" viewBox="0 0 32 32" fill="none" xmlns="http://www.w3.org/2000/svg">
  <path fill-rule="evenodd" clip-rule="evenodd" d="M10.7998 14.2C10.7998 11.4389 13.0387 9.20001 15.7998 9.20001C18.5609 9.20001 20.7998 11.4389 20.7998 14.2V16.6C20.7998 19.3611 18.5609 21.6 15.7998 21.6C13.0387 21.6 10.7998 19.3611 10.7998 16.6V14.2ZM15.7998 11.2C14.1433 11.2 12.7998 12.5435 12.7998 14.2V16.6C12.7998 18.2565 14.1433 19.6 15.7998 19.6C17.4563 19.6 18.7998 18.2565 18.7998 16.6V14.2C18.7998 12.5435 17.4563 11.2 15.7998 11.2Z" fill="#3B4043"/>
  <path fill-rule="evenodd" clip-rule="evenodd" d="M8.77902 26.743C8.79686 26.7553 8.81501 26.7669 8.83343 26.7778C10.847 28.0583 13.2368 28.8 15.7998 28.8C18.3634 28.8 20.7537 28.0579 22.7677 26.7769C22.785 26.7665 22.8021 26.7556 22.819 26.7441C26.4166 24.4319 28.7998 20.3943 28.7998 15.8C28.7998 8.62029 22.9795 2.79999 15.7998 2.79999C8.6201 2.79999 2.7998 8.62029 2.7998 15.8C2.7998 20.3936 5.18231 24.4307 8.77902 26.743ZM4.7998 15.8C4.7998 9.72485 9.72467 4.79999 15.7998 4.79999C21.8749 4.79999 26.7998 9.72485 26.7998 15.8C26.7998 19.4165 25.0546 22.6253 22.3604 24.6303C21.0395 23.4933 19.3169 22.8 17.4358 22.8H14.163C12.2827 22.8 10.5596 23.4931 9.23904 24.6301C6.54495 22.6252 4.7998 19.4164 4.7998 15.8ZM20.5204 25.7384C19.09 26.4191 17.4894 26.8 15.7998 26.8C14.1101 26.8 12.5094 26.419 11.0789 25.7383C11.9621 25.146 13.0238 24.8 14.163 24.8H17.4358C18.5755 24.8 19.637 25.146 20.5204 25.7384Z" fill="#3B4043"/>
</svg>
