<svg width="24" height="24" viewBox="0 0 24 24" fill="none" xmlns="http://www.w3.org/2000/svg">
<path fill-rule="evenodd" clip-rule="evenodd" d="M11.8994 2.8C12.2369 2.8 12.5467 2.987 12.7039 3.28568L21.7948 20.5584C21.9431 20.8402 21.9332 21.1791 21.7686 21.4517C21.604 21.7243 21.3088 21.8909 20.9903 21.8909H2.80851C2.49006 21.8909 2.19484 21.7243 2.03025 21.4517C1.86567 21.1791 1.85572 20.8402 2.00403 20.5584L11.0949 3.28568C11.2521 2.987 11.5619 2.8 11.8994 2.8ZM4.31429 20.0727H19.4845L11.8994 5.66099L4.31429 20.0727ZM12.8084 10.9818C12.8084 10.4797 12.4014 10.0727 11.8993 10.0727C11.3972 10.0727 10.9902 10.4797 10.9902 10.9818V14.6182C10.9902 15.1203 11.3972 15.5273 11.8993 15.5273C12.4014 15.5273 12.8084 15.1203 12.8084 14.6182V10.9818ZM12.8084 17.3455C12.8084 17.8475 12.4014 18.2545 11.8993 18.2545C11.3972 18.2545 10.9902 17.8475 10.9902 17.3455C10.9902 16.8434 11.3972 16.4364 11.8993 16.4364C12.4014 16.4364 12.8084 16.8434 12.8084 17.3455Z" fill="#444444"/>
</svg>
